<?xml version="1.0" encoding="UTF-8"?>
<svg id="Layer_2" data-name="Layer 2" xmlns="http://www.w3.org/2000/svg" viewBox="0 0 150 150">
  <defs>
    <style>
      .cls-1 {
        fill: #ec2848;
      }

      .cls-2 {
        fill: #fff;
        stroke: #fff;
        stroke-miterlimit: 10;
        stroke-width: 3px;
      }
    </style>
  </defs>
  <g id="Layer_1-2" data-name="Layer 1">
    <rect class="cls-1" width="150" height="150"/>
    <g>
      <path class="cls-2" d="m18,16.72l.1,4.47c1.02-1.66,2.29-2.9,3.81-3.73s3.22-1.24,5.08-1.24c4.33,0,7.08,1.78,8.25,5.33.98-1.71,2.29-3.03,3.94-3.95s3.45-1.38,5.43-1.38c5.89,0,8.9,3.22,9.01,9.65v18.33h-3.05v-18.1c-.02-2.45-.55-4.27-1.59-5.46s-2.74-1.78-5.09-1.78c-2.18.03-4.03.74-5.54,2.12s-2.34,3.06-2.51,5.04v18.18h-3.05v-18.33c-.02-2.35-.57-4.11-1.66-5.27s-2.77-1.74-5.04-1.74c-1.91,0-3.55.55-4.93,1.64s-2.39,2.71-3.05,4.86v18.84h-3.05v-27.47h2.92Z"/>
      <path class="cls-2" d="m78.66,44.2c-.3-.86-.5-2.14-.58-3.83-1.07,1.39-2.42,2.46-4.08,3.21s-3.4,1.13-5.24,1.13c-2.64,0-4.78-.74-6.41-2.21s-2.45-3.33-2.45-5.59c0-2.67,1.11-4.79,3.34-6.35s5.33-2.34,9.31-2.34h5.51v-3.12c0-1.96-.61-3.51-1.82-4.63s-2.97-1.69-5.29-1.69c-2.12,0-3.87.54-5.26,1.62s-2.08,2.39-2.08,3.91l-3.05-.03c0-2.18,1.02-4.08,3.05-5.67s4.53-2.4,7.49-2.4,5.48.77,7.25,2.3,2.68,3.67,2.73,6.41v13c0,2.66.28,4.65.84,5.97v.3h-3.25Zm-9.55-2.18c2.03,0,3.85-.49,5.45-1.47s2.76-2.29,3.49-3.94v-6.04h-5.43c-3.03.03-5.4.59-7.11,1.66s-2.56,2.55-2.56,4.43c0,1.54.57,2.82,1.71,3.83s2.63,1.52,4.46,1.52Z"/>
      <path class="cls-2" d="m18.13,56.72l.1,4.7c1.03-1.69,2.32-2.98,3.86-3.87s3.24-1.33,5.1-1.33c2.95,0,5.14.83,6.58,2.49,1.44,1.66,2.17,4.15,2.18,7.46v18.03h-3.02v-18.05c-.02-2.45-.54-4.28-1.56-5.48s-2.66-1.8-4.91-1.8c-1.88,0-3.54.59-4.99,1.76s-2.52,2.76-3.21,4.76v18.81h-3.02v-27.47h2.89Z"/>
      <path class="cls-2" d="m61.14,84.2c-.3-.86-.5-2.14-.58-3.83-1.07,1.39-2.42,2.46-4.08,3.21s-3.4,1.13-5.24,1.13c-2.64,0-4.78-.74-6.41-2.21s-2.45-3.33-2.45-5.59c0-2.67,1.11-4.79,3.34-6.35s5.33-2.34,9.31-2.34h5.51v-3.12c0-1.96-.61-3.51-1.82-4.63s-2.97-1.69-5.29-1.69c-2.12,0-3.87.54-5.26,1.62s-2.08,2.39-2.08,3.91l-3.05-.03c0-2.18,1.02-4.08,3.05-5.67s4.53-2.4,7.49-2.4,5.48.77,7.25,2.3,2.68,3.67,2.73,6.41v13c0,2.66.28,4.65.84,5.97v.3h-3.25Zm-9.55-2.18c2.03,0,3.85-.49,5.45-1.47s2.76-2.29,3.49-3.94v-6.04h-5.43c-3.03.03-5.4.59-7.11,1.66s-2.56,2.55-2.56,4.43c0,1.54.57,2.82,1.71,3.83s2.63,1.52,4.46,1.52Z"/>
      <path class="cls-2" d="m14.01,110.21c0-4.3.95-7.71,2.86-10.22s4.49-3.77,7.76-3.77c3.74,0,6.58,1.49,8.53,4.47l.15-3.96h2.84v26.91c0,3.54-.99,6.34-2.97,8.4-1.98,2.07-4.66,3.1-8.05,3.1-1.91,0-3.74-.43-5.47-1.28s-3.1-1.99-4.1-3.42l1.7-1.83c2.15,2.64,4.71,3.96,7.67,3.96,2.54,0,4.52-.75,5.94-2.25s2.16-3.58,2.21-6.23v-3.45c-1.95,2.71-4.78,4.06-8.51,4.06-3.18,0-5.74-1.27-7.67-3.81s-2.89-5.97-2.89-10.28v-.41Zm3.07.53c0,3.5.7,6.27,2.11,8.29s3.39,3.03,5.94,3.03c3.74,0,6.39-1.68,7.95-5.03v-12.77c-.71-1.76-1.74-3.1-3.07-4.02s-2.95-1.38-4.82-1.38c-2.56,0-4.54,1-5.97,3.01s-2.13,4.96-2.13,8.87Z"/>
      <path class="cls-2" d="m54.72,124.7c-2.34,0-4.45-.58-6.33-1.73s-3.36-2.75-4.41-4.81-1.57-4.36-1.57-6.92v-1.09c0-2.64.51-5.02,1.54-7.13s2.45-3.78,4.28-4.99,3.81-1.82,5.94-1.82c3.33,0,5.98,1.14,7.93,3.42s2.93,5.39,2.93,9.33v1.7h-19.6v.58c0,3.11.89,5.71,2.68,7.78s4.03,3.11,6.74,3.11c1.62,0,3.06-.3,4.3-.89s2.37-1.54,3.39-2.84l1.9,1.45c-2.23,3.23-5.48,4.85-9.72,4.85Zm-.56-25.9c-2.29,0-4.21.84-5.78,2.51s-2.52,3.93-2.86,6.75h16.48v-.33c-.08-2.64-.84-4.79-2.26-6.45s-3.28-2.49-5.59-2.49Z"/>
    </g>
  </g>
</svg>